<svg width="100" height="100" viewBox="0 0 100 100" fill="none" xmlns="http://www.w3.org/2000/svg">
    <circle cx="50" cy="50" r="48" fill="#0A2E1F" stroke="#99CC33" stroke-width="4"/>
    <path d="M30 65V35H40V55H55V65H30Z" fill="#99CC33"/>
    <path d="M45 35H65V45H55V50H65V60H55V65H45V35Z" fill="#FFFFFF"/>
    <path d="M60 42C60 38 63 35 67 35C71 35 74 38 74 42C74 46 71 49 67 49C63 49 60 46 60 42Z" fill="#99CC33"/>
    <path d="M50 82C67.6731 82 82 67.6731 82 50C82 45 80.5 41 78.5 38" stroke="#99CC33" stroke-width="3" stroke-linecap="round"/>
</svg>
